<svg width="973" height="812" viewBox="0 0 973 812" fill="none" xmlns="http://www.w3.org/2000/svg">
<path d="M486.763 806.763C712.678 806.763 895.819 785.414 895.819 759.079C895.819 732.745 712.678 711.396 486.763 711.396C260.847 711.396 77.7061 732.745 77.7061 759.079C77.7061 785.414 260.847 806.763 486.763 806.763Z" fill="#EBEBEB" fill-opacity="0.3"/>
<path d="M416.048 619.712L414.256 630.674L412.348 642.453L394.825 749.873H366.184L383.688 642.453L385.615 630.674L387.406 619.712H416.048Z" fill="#EBEBEB"/>
<path d="M411.9 619.712C410.382 630.596 408.766 641.46 407.13 652.306L402.068 684.88L396.772 717.396L394.046 733.634L391.203 749.873L393.54 733.556L395.973 717.259L401.094 684.705L406.39 652.189C408.123 641.344 409.953 630.518 411.9 619.712Z" fill="#C7C7C7"/>
<path d="M414.255 630.674L412.347 642.453H383.687L385.614 630.674H414.255Z" fill="#C7C7C7"/>
<path d="M557.48 619.712L559.272 630.674L561.18 642.453L578.703 749.873H607.345L589.84 642.453L587.913 630.674L586.122 619.712H557.48Z" fill="#EBEBEB"/>
<path d="M561.726 619.712C563.225 630.596 564.86 641.46 566.496 652.306L571.539 684.88L576.835 717.396L579.58 733.634L582.423 749.873L580.086 733.556L577.652 717.259L572.59 684.705L567.294 652.189C565.483 641.344 563.653 630.518 561.726 619.712Z" fill="#C7C7C7"/>
<path d="M559.273 630.674H587.915L589.842 642.453H561.182L559.273 630.674Z" fill="#C7C7C7"/>
<path d="M414.996 589.493H392.293L395.116 568.309H412.172L414.996 589.493Z" fill="#C7C7C7"/>
<path d="M424.501 556.894C426.533 545.383 418.848 534.405 407.338 532.373C395.827 530.341 384.848 538.026 382.817 549.537C380.785 561.047 388.469 572.026 399.98 574.058C411.491 576.089 422.469 568.405 424.501 556.894Z" fill="#DBDBDB"/>
<path d="M419.314 556.898C421.364 548.245 416.011 539.568 407.358 537.517C398.705 535.467 390.028 540.82 387.977 549.473C385.927 558.127 391.28 566.804 399.933 568.854C408.586 570.904 417.263 565.552 419.314 556.898Z" fill="white"/>
<path d="M417.098 552.246C416.948 550.327 416.404 548.46 415.5 546.761C414.595 545.063 413.349 543.569 411.841 542.374C410.322 541.195 408.579 540.336 406.718 539.851C404.857 539.366 402.917 539.264 401.015 539.551C399.127 539.848 397.323 540.539 395.72 541.579C394.117 542.619 392.75 543.984 391.708 545.587C390.609 547.301 389.889 549.23 389.597 551.245C389.305 553.26 389.447 555.314 390.014 557.269C390.982 560.648 393.241 563.509 396.303 565.233C399.29 566.929 402.796 567.469 406.155 566.751C409.405 566.056 412.318 564.27 414.411 561.689C416.478 559.139 417.672 555.992 417.818 552.713C417.818 552.577 417.818 552.44 417.682 552.44C417.546 552.44 417.546 552.557 417.546 552.713C417.472 554.04 417.216 555.35 416.786 556.607C416.338 557.842 415.743 559.019 415.015 560.112C414.247 561.172 413.358 562.139 412.367 562.993C411.347 563.845 410.23 564.571 409.037 565.155C407.323 565.962 405.46 566.404 403.565 566.451C401.671 566.498 399.788 566.149 398.036 565.427C396.279 564.683 394.704 563.566 393.42 562.154C392.136 560.743 391.173 559.069 390.599 557.25C390.008 555.38 389.827 553.405 390.069 551.46C390.311 549.514 390.97 547.644 392 545.976C392.996 544.394 394.32 543.043 395.881 542.016C397.443 540.988 399.207 540.307 401.054 540.018C403.55 539.622 406.106 539.906 408.454 540.842C410.801 541.777 412.853 543.329 414.392 545.334C415.132 546.367 415.734 547.493 416.183 548.683C416.617 549.89 416.904 551.145 417.04 552.421C417.04 552.421 417.098 552.304 417.098 552.246Z" fill="#EBEBEB"/>
<path d="M415.21 552.265C415.071 550.622 414.594 549.026 413.81 547.575C413.026 546.125 411.952 544.851 410.654 543.835C409.351 542.834 407.863 542.101 406.275 541.68C404.688 541.259 403.032 541.157 401.405 541.381C399.778 541.624 398.221 542.207 396.836 543.093C395.45 543.979 394.267 545.147 393.364 546.522C392.403 547.989 391.767 549.644 391.499 551.377C391.23 553.109 391.335 554.879 391.806 556.568C392.208 558.031 392.897 559.398 393.833 560.592C394.769 561.785 395.933 562.78 397.258 563.519C399.858 565.007 402.922 565.465 405.844 564.804C408.664 564.197 411.187 562.636 412.99 560.385C414.776 558.169 415.806 555.44 415.93 552.596C415.93 552.48 415.93 552.363 415.813 552.363C415.696 552.363 415.657 552.46 415.657 552.596C415.498 554.878 414.732 557.076 413.438 558.963C412.144 560.849 410.369 562.355 408.298 563.325C406.824 564.042 405.214 564.437 403.576 564.484C401.938 564.531 400.308 564.229 398.796 563.597C397.274 562.954 395.911 561.986 394.802 560.762C393.692 559.538 392.863 558.087 392.371 556.51C391.866 554.891 391.719 553.182 391.941 551.501C392.163 549.82 392.748 548.207 393.656 546.775C394.513 545.424 395.654 544.275 396.998 543.408C398.343 542.541 399.86 541.975 401.444 541.751C403.563 541.436 405.729 541.688 407.719 542.482C409.71 543.275 411.454 544.582 412.776 546.268C413.412 547.147 413.935 548.102 414.333 549.111C414.698 550.146 414.953 551.216 415.093 552.304L415.21 552.265Z" fill="#EBEBEB"/>
<path d="M413.321 552.285C413.181 550.916 412.763 549.591 412.094 548.389C411.424 547.187 410.517 546.134 409.427 545.295C407.238 543.63 404.484 542.889 401.755 543.231C400.39 543.411 399.078 543.879 397.906 544.604C396.735 545.329 395.731 546.295 394.96 547.437C394.127 548.67 393.569 550.068 393.323 551.536C393.078 553.004 393.152 554.508 393.539 555.945C393.866 557.198 394.444 558.372 395.237 559.396C396.03 560.42 397.022 561.273 398.153 561.903C400.385 563.151 403.001 563.526 405.494 562.955C407.897 562.396 410.03 561.02 411.53 559.061C413.013 557.18 413.883 554.89 414.022 552.499C414.022 552.382 414.022 552.285 413.886 552.285C413.862 552.287 413.84 552.294 413.82 552.305C413.799 552.316 413.781 552.331 413.767 552.35C413.752 552.368 413.742 552.388 413.735 552.411C413.729 552.433 413.727 552.456 413.73 552.479C413.579 554.395 412.927 556.238 411.841 557.824C410.754 559.409 409.27 560.681 407.538 561.514C406.297 562.127 404.94 562.468 403.557 562.515C402.173 562.562 400.796 562.314 399.516 561.786C398.223 561.252 397.065 560.436 396.125 559.399C395.186 558.362 394.489 557.129 394.084 555.789C393.681 554.426 393.576 552.991 393.778 551.583C393.98 550.175 394.482 548.827 395.252 547.631C395.987 546.518 396.954 545.576 398.086 544.87C399.219 544.164 400.49 543.712 401.814 543.542C403.564 543.336 405.337 543.543 406.993 544.146C408.66 544.778 410.121 545.856 411.218 547.261C411.76 547.978 412.206 548.764 412.542 549.598C412.869 550.452 413.098 551.34 413.224 552.246C413.224 552.246 413.34 552.304 413.321 552.285Z" fill="#EBEBEB"/>
<path d="M411.452 552.305C411.166 550.11 410.025 548.116 408.278 546.756C406.531 545.448 404.354 544.85 402.184 545.081C401.08 545.21 400.015 545.569 399.059 546.136C398.103 546.703 397.277 547.465 396.635 548.372C395.937 549.372 395.462 550.509 395.24 551.708C395.018 552.907 395.056 554.14 395.35 555.323C395.608 556.364 396.078 557.341 396.732 558.192C397.385 559.043 398.207 559.75 399.147 560.268C400.997 561.293 403.163 561.591 405.221 561.106C407.179 560.632 408.916 559.506 410.147 557.912C411.319 556.356 411.998 554.484 412.094 552.539C412.097 552.518 412.096 552.497 412.09 552.477C412.085 552.457 412.076 552.439 412.063 552.422C412.05 552.406 412.034 552.392 412.016 552.382C411.998 552.372 411.979 552.366 411.958 552.363C411.958 552.363 411.822 552.363 411.802 552.519C411.686 554.062 411.177 555.549 410.326 556.84C409.474 558.131 408.307 559.184 406.935 559.898C405.932 560.422 404.828 560.721 403.698 560.775C402.568 560.829 401.44 560.636 400.393 560.21C399.331 559.772 398.381 559.1 397.616 558.244C396.85 557.387 396.289 556.369 395.973 555.264C395.661 554.157 395.593 552.995 395.775 551.858C395.957 550.722 396.383 549.639 397.024 548.683C397.626 547.804 398.411 547.065 399.325 546.518C400.239 545.97 401.261 545.626 402.32 545.51C403.705 545.384 405.101 545.564 406.409 546.035C407.724 546.522 408.886 547.348 409.777 548.43C410.205 549.003 410.565 549.624 410.848 550.28C411.125 550.964 411.327 551.675 411.452 552.402V552.305Z" fill="#EBEBEB"/>
<path d="M580.748 589.493H558.026L560.85 568.309H577.925L580.748 589.493Z" fill="#C7C7C7"/>
<path d="M590.663 555.045C592.417 543.473 584.457 532.671 572.885 530.917C561.313 529.164 550.511 537.124 548.758 548.696C547.004 560.268 554.964 571.07 566.536 572.823C578.108 574.576 588.91 566.617 590.663 555.045Z" fill="#DBDBDB"/>
<path d="M585.291 555.604C586.631 546.813 580.591 538.6 571.8 537.259C563.009 535.918 554.795 541.959 553.455 550.75C552.114 559.541 558.154 567.755 566.945 569.095C575.737 570.436 583.95 564.396 585.291 555.604Z" fill="white"/>
<path d="M582.852 552.246C582.699 550.328 582.153 548.462 581.249 546.764C580.345 545.066 579.101 543.572 577.595 542.375C576.075 541.196 574.332 540.338 572.472 539.853C570.611 539.368 568.671 539.265 566.769 539.551C564.882 539.849 563.078 540.54 561.474 541.58C559.871 542.619 558.504 543.985 557.462 545.587C556.355 547.297 555.63 549.227 555.338 551.243C555.045 553.26 555.192 555.315 555.769 557.27C556.728 560.652 558.99 563.516 562.058 565.233C565.044 566.931 568.551 567.471 571.91 566.752C575.159 566.057 578.072 564.27 580.165 561.689C582.232 559.139 583.426 555.993 583.572 552.713C583.572 552.577 583.572 552.441 583.436 552.441C583.3 552.441 583.3 552.558 583.28 552.713C583.203 554.038 582.955 555.347 582.541 556.608C582.094 557.847 581.492 559.024 580.749 560.112C579.226 562.282 577.167 564.02 574.772 565.155C573.063 565.968 571.202 566.413 569.31 566.459C567.418 566.506 565.538 566.155 563.79 565.428C562.03 564.684 560.452 563.569 559.165 562.157C557.878 560.745 556.911 559.071 556.333 557.25C555.745 555.379 555.568 553.404 555.813 551.458C556.058 549.513 556.721 547.643 557.755 545.977C558.75 544.394 560.074 543.044 561.636 542.016C563.197 540.988 564.961 540.307 566.808 540.019C569.304 539.622 571.86 539.907 574.208 540.842C576.555 541.778 578.607 543.33 580.146 545.334C580.879 546.372 581.481 547.497 581.937 548.683C582.365 549.891 582.646 551.146 582.774 552.421C582.774 552.421 582.852 552.305 582.852 552.246Z" fill="#EBEBEB"/>
<path d="M580.963 552.265C580.814 550.625 580.334 549.031 579.551 547.582C578.768 546.132 577.698 544.858 576.406 543.835C575.104 542.834 573.616 542.101 572.028 541.68C570.441 541.259 568.785 541.157 567.158 541.381C565.528 541.621 563.967 542.203 562.578 543.089C561.188 543.975 560.002 545.145 559.097 546.522C558.137 547.989 557.501 549.644 557.232 551.377C556.964 553.109 557.068 554.879 557.539 556.568C557.942 558.031 558.631 559.398 559.567 560.592C560.503 561.785 561.667 562.78 562.991 563.519C565.593 565.003 568.655 565.461 571.578 564.804C574.404 564.201 576.935 562.64 578.743 560.385C580.52 558.164 581.55 555.438 581.683 552.596C581.683 552.48 581.683 552.363 581.547 552.363C581.41 552.363 581.41 552.46 581.391 552.596C581.236 554.877 580.473 557.074 579.182 558.961C577.892 560.847 576.12 562.354 574.05 563.325C572.577 564.042 570.967 564.437 569.329 564.484C567.691 564.531 566.061 564.229 564.549 563.597C563.023 562.957 561.656 561.991 560.542 560.767C559.429 559.542 558.597 558.09 558.104 556.51C557.605 554.89 557.462 553.182 557.684 551.502C557.906 549.822 558.487 548.209 559.389 546.775C560.251 545.427 561.392 544.281 562.736 543.414C564.08 542.548 565.595 541.98 567.177 541.751C569.303 541.427 571.477 541.674 573.475 542.468C575.474 543.262 577.225 544.574 578.548 546.268C579.191 547.143 579.715 548.099 580.106 549.111C580.489 550.14 580.744 551.213 580.865 552.304C580.883 552.305 580.901 552.301 580.918 552.295C580.934 552.288 580.95 552.278 580.963 552.265Z" fill="#EBEBEB"/>
<path d="M579.075 552.285C578.926 550.919 578.504 549.596 577.835 548.396C577.167 547.195 576.264 546.141 575.18 545.295C572.99 543.634 570.237 542.894 567.509 543.231C566.15 543.417 564.846 543.887 563.682 544.612C562.517 545.337 561.519 546.3 560.753 547.437C559.921 548.671 559.362 550.068 559.114 551.536C558.865 553.003 558.933 554.506 559.312 555.946C559.649 557.197 560.232 558.369 561.028 559.392C561.824 560.415 562.816 561.269 563.946 561.903C566.171 563.15 568.781 563.525 571.267 562.955C573.675 562.396 575.815 561.02 577.322 559.061C578.81 557.185 579.675 554.891 579.795 552.499C579.795 552.382 579.795 552.285 579.678 552.285C579.655 552.287 579.633 552.294 579.612 552.306C579.592 552.317 579.574 552.332 579.56 552.35C579.545 552.368 579.534 552.389 579.528 552.411C579.522 552.433 579.52 552.457 579.522 552.48C579.367 554.395 578.714 556.236 577.628 557.821C576.542 559.405 575.061 560.679 573.331 561.514C572.09 562.127 570.732 562.469 569.349 562.516C567.966 562.563 566.589 562.314 565.309 561.787C564.016 561.252 562.857 560.437 561.918 559.399C560.978 558.362 560.281 557.129 559.877 555.79C559.473 554.426 559.369 552.991 559.571 551.583C559.772 550.175 560.275 548.827 561.045 547.632C561.774 546.517 562.736 545.573 563.866 544.867C564.996 544.161 566.265 543.709 567.587 543.543C569.343 543.335 571.124 543.542 572.786 544.146C574.453 544.778 575.914 545.856 577.011 547.262C577.553 547.979 577.998 548.764 578.335 549.598C578.644 550.458 578.872 551.344 579.016 552.246C579.031 552.265 579.052 552.278 579.075 552.285Z" fill="#EBEBEB"/>
<path d="M577.186 552.305C577.052 551.218 576.704 550.168 576.163 549.215C575.622 548.263 574.898 547.427 574.032 546.756C572.284 545.45 570.108 544.852 567.938 545.081C566.832 545.201 565.764 545.557 564.807 546.125C563.849 546.692 563.025 547.458 562.389 548.372C561.691 549.372 561.216 550.509 560.994 551.708C560.772 552.907 560.81 554.139 561.104 555.323C561.362 556.364 561.832 557.341 562.486 558.192C563.139 559.043 563.961 559.75 564.9 560.268C566.744 561.291 568.903 561.59 570.956 561.105C572.916 560.627 574.659 559.502 575.901 557.912C577.073 556.356 577.752 554.484 577.848 552.538C577.854 552.519 577.856 552.499 577.853 552.479C577.85 552.459 577.843 552.44 577.831 552.423C577.82 552.406 577.805 552.392 577.788 552.382C577.771 552.371 577.752 552.365 577.732 552.363C577.69 552.363 577.651 552.38 577.621 552.409C577.592 552.438 577.576 552.478 577.576 552.519C577.434 554.069 576.896 555.557 576.012 556.839C575.129 558.121 573.931 559.155 572.533 559.84C571.533 560.361 570.432 560.658 569.306 560.712C568.18 560.766 567.055 560.575 566.01 560.151C564.948 559.714 563.999 559.042 563.233 558.185C562.468 557.329 561.906 556.31 561.59 555.206C561.279 554.098 561.211 552.936 561.393 551.8C561.574 550.663 562 549.58 562.642 548.625C563.243 547.745 564.028 547.005 564.942 546.457C565.856 545.91 566.878 545.566 567.938 545.451C569.316 545.326 570.706 545.505 572.007 545.977C573.325 546.457 574.489 547.285 575.376 548.372C575.817 548.939 576.183 549.561 576.466 550.221C576.742 550.905 576.945 551.617 577.07 552.344C577.07 552.344 577.206 552.324 577.186 552.305Z" fill="#EBEBEB"/>
<path d="M629.483 578.707H344.025V633.302H629.483V578.707Z" fill="#DBDBDB"/>
<path d="M402.709 578.707L381.992 633.302H345.115L365.832 578.707H402.709Z" fill="#EBEBEB"/>
<path d="M478.276 578.707L457.559 633.302H420.682L441.398 578.707H478.276Z" fill="#EBEBEB"/>
<path d="M553.821 578.707L533.123 633.302H496.246L516.963 578.707H553.821Z" fill="#EBEBEB"/>
<path d="M629.405 578.707L608.689 633.302H571.812L592.528 578.707H629.405Z" fill="#EBEBEB"/>
<path d="M623.719 683.789H349.808V718.349H623.719V683.789Z" fill="#DBDBDB"/>
<path d="M406.098 683.789L386.238 718.33H350.86L370.74 683.789H406.098Z" fill="#EBEBEB"/>
<path d="M478.627 683.789L458.747 718.33H423.35L443.229 683.789H478.627Z" fill="#EBEBEB"/>
<path d="M551.114 683.789L531.234 718.33H495.856L515.736 683.789H551.114Z" fill="#EBEBEB"/>
<path d="M623.622 683.789L603.742 718.33H568.364L588.244 683.789H623.622Z" fill="#EBEBEB"/>
<path d="M910.834 221.633H690.467C690.467 221.633 712.313 161.956 745.938 161.956C779.564 161.956 790.098 203.136 790.098 203.136C790.098 203.136 812.781 180.765 831.434 180.765C850.086 180.765 866.266 210.34 866.266 210.34C866.266 210.34 892.61 194.433 910.834 221.633Z" fill="#EBEBEB"/>
<path d="M320.233 81.6598H217.253C217.253 81.6598 240.248 48.3262 258.394 48.3262C276.541 48.3262 281.876 70.5421 281.876 70.5421C281.876 70.5421 294.668 60.1837 306.525 62.0334C318.383 63.8831 320.233 81.6598 320.233 81.6598Z" fill="#EBEBEB"/>
<path d="M875.747 321.712H772.768C772.768 321.712 795.782 288.379 813.909 288.379C832.036 288.379 837.39 310.595 837.39 310.595C837.39 310.595 850.182 300.217 862.04 302.086C873.898 303.955 875.747 321.712 875.747 321.712Z" fill="#EBEBEB"/>
<path d="M263.301 165.208H62.6963C62.6963 165.208 90.1692 103.876 119.55 100.04C148.931 96.2043 162.989 145.601 162.989 145.601C162.989 145.601 181.953 128.078 196.848 128.078C211.743 128.078 223.25 151.072 223.25 151.072C223.25 151.072 253.118 135.379 263.301 165.208Z" fill="#EBEBEB"/>
<path d="M972.476 812H908.866C862.643 812 834.371 780.048 829.29 722.046C826.778 693.443 825.24 658.825 823.624 622.181C818.639 509.583 811.805 355.435 767.977 355.435H717.606V343.752H767.977C822.962 343.752 829.231 485.05 835.286 621.694C836.902 658.221 838.441 692.723 840.933 720.994C844.107 757.17 858.456 800.298 908.866 800.298H972.476V812Z" fill="#FFAB00"/>
<path opacity="0.2" d="M754.6 343.714L752.108 355.396H717.606V343.714H754.6Z" fill="black"/>
<path d="M622.669 279.636H602.303V421.946H622.669V279.636Z" fill="#FFAB00"/>
<path d="M602.321 290.15H524.887V409.972H602.321V290.15Z" fill="#FFAB00"/>
<path opacity="0.2" d="M602.302 290.169V409.991H583.065L574.439 290.169H602.302Z" fill="black"/>
<path d="M465.463 311.665H524.868V329.578H465.463C463.429 329.578 461.478 328.77 460.039 327.331C458.6 325.892 457.792 323.941 457.792 321.907V319.356C457.789 318.347 457.986 317.347 458.37 316.414C458.755 315.481 459.319 314.633 460.032 313.919C460.745 313.204 461.591 312.638 462.523 312.251C463.455 311.864 464.454 311.665 465.463 311.665Z" fill="#DBDBDB"/>
<path d="M524.868 311.665H504.015V329.558H524.868V311.665Z" fill="#A6A6A6"/>
<path d="M465.463 370.563H524.868V388.476H465.463C463.429 388.476 461.478 387.668 460.039 386.229C458.6 384.791 457.792 382.84 457.792 380.805V378.254C457.789 377.245 457.986 376.246 458.37 375.313C458.755 374.38 459.319 373.532 460.032 372.817C460.745 372.103 461.591 371.536 462.523 371.149C463.455 370.763 464.454 370.563 465.463 370.563Z" fill="#DBDBDB"/>
<path d="M524.868 370.563H504.015V388.457H524.868V370.563Z" fill="#A6A6A6"/>
<path d="M743.016 338.632H682.521V362.522H743.016V338.632Z" fill="#FFAB00"/>
<path d="M743.016 338.651H682.521V362.542H743.016V338.651Z" fill="#FFAB00"/>
<path opacity="0.2" d="M703.764 338.651L701.778 362.542H682.521V338.651H703.764Z" fill="black"/>
<path d="M622.669 294.667H670.547C673.723 294.667 676.769 295.929 679.014 298.174C681.26 300.42 682.521 303.466 682.521 306.641V393.499C682.521 396.675 681.26 399.721 679.014 401.967C676.769 404.212 673.723 405.474 670.547 405.474H622.669V294.667Z" fill="#FFAB00"/>
<path opacity="0.2" d="M648.136 294.667L639.511 405.474H622.688V294.667H648.136Z" fill="black"/>
<g opacity="0.2">
<path opacity="0.2" d="M643.678 317.058H639.861V383.063H643.678V317.058Z" fill="black"/>
<path opacity="0.2" d="M654.504 317.058H650.688V383.063H654.504V317.058Z" fill="black"/>
<path opacity="0.2" d="M665.33 317.058H661.514V383.063H665.33V317.058Z" fill="black"/>
</g>
<path opacity="0.2" d="M254.87 343.713V355.396H214.683L212.19 343.713H254.87Z" fill="black"/>
<path opacity="0.2" d="M429.676 282.245V416.358H409.427L400.334 282.245H429.676Z" fill="black"/>
<path d="M224.612 361.49H285.107V337.6H224.612V361.49Z" fill="#FFAB00"/>
<path opacity="0.2" d="M321.303 408.414L330.395 291.727H348.133V408.414H321.303Z" fill="black"/>
<path d="M285.107 337.619H224.612V361.509H285.107V337.619Z" fill="#FFAB00"/>
<path d="M63.6103 811.999H0V800.317H63.6103C114 800.317 128.369 757.19 131.543 721.013C134.035 692.684 135.554 658.182 137.17 621.714C143.225 485.069 149.495 343.771 204.48 343.771H254.869V355.454H204.441C160.632 355.454 153.817 509.641 148.813 622.2C147.178 658.863 145.64 693.482 143.147 722.084C138.085 780.048 109.833 811.999 63.6103 811.999Z" fill="#FFAB00"/>
<path d="M429.676 425.022H451.133V275.138H429.676V425.022Z" fill="#FFAB00"/>
<path d="M429.676 282.245H348.134V416.358H429.676V282.245Z" fill="#FFAB00"/>
<path opacity="0.2" d="M263.865 361.49L265.851 337.619H285.108V361.49H263.865Z" fill="black"/>
<path d="M348.134 408.414H297.082C293.906 408.414 290.86 407.152 288.615 404.906C286.369 402.661 285.108 399.615 285.108 396.439V303.682C285.108 300.506 286.369 297.46 288.615 295.214C290.86 292.969 293.906 291.707 297.082 291.707H348.134V408.414Z" fill="#FFAB00"/>
<g opacity="0.2">
<path opacity="0.2" d="M325.995 384.815H330.025V315.305H325.995V384.815Z" fill="black"/>
<path opacity="0.2" d="M314.603 384.815H318.634V315.305H314.603V384.815Z" fill="black"/>
<path opacity="0.2" d="M303.194 384.815H307.225V315.305H303.194V384.815Z" fill="black"/>
</g>
<path d="M319.161 159.815C319.214 159.759 319.277 159.715 319.348 159.685C319.418 159.655 319.494 159.639 319.57 159.639C319.647 159.639 319.722 159.655 319.793 159.685C319.863 159.715 319.926 159.759 319.979 159.815C321.701 161.259 323.848 162.1 326.093 162.209C327.544 162.238 328.968 161.809 330.162 160.983C330.634 160.687 331.026 160.281 331.304 159.799C331.583 159.317 331.739 158.774 331.759 158.218C331.749 157.7 331.606 157.193 331.343 156.746C331.081 156.3 330.707 155.928 330.26 155.667C328.929 154.909 327.47 154.401 325.957 154.168C324.404 153.946 322.913 153.409 321.576 152.591C321.004 152.261 320.525 151.792 320.185 151.227C319.844 150.661 319.653 150.019 319.629 149.359C319.651 148.667 319.839 147.991 320.178 147.388C320.517 146.784 320.996 146.272 321.576 145.893C322.886 144.976 324.455 144.499 326.054 144.53C328.137 144.653 330.134 145.407 331.778 146.691C331.845 146.733 331.902 146.787 331.946 146.852C331.991 146.916 332.021 146.989 332.036 147.066C332.051 147.143 332.049 147.222 332.032 147.298C332.014 147.375 331.981 147.446 331.934 147.509C331.893 147.573 331.839 147.628 331.776 147.67C331.713 147.713 331.642 147.742 331.568 147.757C331.493 147.771 331.417 147.771 331.342 147.755C331.268 147.739 331.198 147.709 331.136 147.665C329.679 146.515 327.906 145.835 326.054 145.718C324.705 145.694 323.381 146.081 322.257 146.828C321.829 147.107 321.474 147.484 321.22 147.928C320.966 148.371 320.821 148.868 320.797 149.378C320.811 149.843 320.946 150.295 321.188 150.691C321.43 151.088 321.772 151.413 322.179 151.637C323.374 152.353 324.697 152.829 326.073 153.039C327.745 153.291 329.352 153.866 330.805 154.733C331.394 155.11 331.881 155.628 332.22 156.24C332.56 156.851 332.743 157.538 332.752 158.238C332.724 158.98 332.518 159.706 332.152 160.353C331.786 161 331.271 161.55 330.649 161.956C329.249 162.927 327.582 163.437 325.879 163.417C323.362 163.294 320.954 162.35 319.025 160.73C318.967 160.664 318.923 160.586 318.898 160.501C318.873 160.417 318.867 160.328 318.88 160.24C318.893 160.153 318.925 160.07 318.973 159.996C319.022 159.923 319.086 159.861 319.161 159.815Z" fill="#1A237E"/>
<path d="M345.836 144.452C347.722 144.355 349.594 144.825 351.21 145.803C352.826 146.78 354.112 148.22 354.901 149.936C355.691 151.652 355.947 153.565 355.638 155.428C355.329 157.291 354.468 159.019 353.167 160.388C351.866 161.757 350.184 162.705 348.339 163.108C346.494 163.511 344.57 163.352 342.817 162.651C341.063 161.95 339.56 160.739 338.501 159.175C337.443 157.61 336.878 155.764 336.879 153.876C336.843 152.667 337.046 151.464 337.478 150.335C337.909 149.206 338.56 148.173 339.393 147.297C340.226 146.421 341.224 145.718 342.33 145.23C343.435 144.742 344.627 144.477 345.836 144.452ZM345.836 161.976C347.918 161.873 349.881 160.975 351.318 159.465C352.756 157.955 353.557 155.951 353.557 153.866C353.557 151.781 352.756 149.777 351.318 148.267C349.881 146.758 347.918 145.859 345.836 145.757C343.754 145.859 341.791 146.758 340.353 148.267C338.916 149.777 338.114 151.781 338.114 153.866C338.114 155.951 338.916 157.955 340.353 159.465C341.791 160.975 343.754 161.873 345.836 161.976Z" fill="#1A237E"/>
<path d="M369.473 159.114C369.476 158.556 369.339 158.007 369.074 157.517C368.808 157.027 368.423 156.611 367.954 156.31C367.309 155.86 366.581 155.543 365.813 155.375H365.676H361.179V162.716C361.152 162.869 361.072 163.009 360.953 163.109C360.833 163.209 360.682 163.264 360.526 163.264C360.37 163.264 360.219 163.209 360.1 163.109C359.981 163.009 359.901 162.869 359.874 162.716V145.426C359.878 145.266 359.939 145.113 360.046 144.995C360.153 144.877 360.3 144.802 360.458 144.783H365.754C366.941 144.805 368.087 145.226 369.006 145.977C369.925 146.729 370.566 147.767 370.824 148.926C371.082 150.085 370.944 151.297 370.43 152.368C369.917 153.439 369.059 154.306 367.993 154.83L368.246 154.966C369 155.362 369.632 155.955 370.074 156.682C370.517 157.409 370.753 158.243 370.758 159.094C370.726 159.822 370.805 160.551 370.992 161.255C371.034 161.425 371.122 161.579 371.245 161.703C371.413 161.664 371.589 161.694 371.735 161.785C371.881 161.876 371.985 162.022 372.024 162.19C372.062 162.358 372.033 162.534 371.942 162.68C371.85 162.826 371.705 162.93 371.537 162.969C371.433 162.978 371.329 162.978 371.225 162.969C370.971 162.939 370.728 162.845 370.52 162.695C370.312 162.545 370.146 162.344 370.038 162.112C369.619 161.17 369.425 160.143 369.473 159.114ZM365.754 146.049H361.179V154.051H365.871C366.884 153.967 367.827 153.502 368.51 152.749C369.193 151.996 369.565 151.012 369.55 149.995C369.535 148.979 369.135 148.006 368.43 147.274C367.726 146.541 366.769 146.103 365.754 146.049Z" fill="#1A237E"/>
<path d="M386.062 159.114C386.062 158.557 385.923 158.009 385.658 157.519C385.392 157.03 385.009 156.614 384.543 156.31C383.896 155.863 383.169 155.546 382.401 155.375H382.265H377.728V162.716C377.702 162.869 377.622 163.009 377.502 163.109C377.383 163.209 377.232 163.264 377.076 163.264C376.92 163.264 376.769 163.209 376.65 163.109C376.531 163.009 376.45 162.869 376.424 162.716V145.426C376.427 145.266 376.488 145.113 376.596 144.995C376.703 144.877 376.85 144.802 377.008 144.783H382.323C383.531 144.783 384.702 145.195 385.643 145.952C386.585 146.708 387.239 147.764 387.498 148.943C387.757 150.122 387.605 151.355 387.068 152.436C386.53 153.518 385.64 154.383 384.543 154.888L384.816 155.025C385.567 155.421 386.196 156.015 386.635 156.742C387.074 157.47 387.307 158.303 387.308 159.152C387.276 159.881 387.355 160.609 387.541 161.314C387.587 161.486 387.681 161.642 387.814 161.762C387.964 161.749 388.114 161.783 388.243 161.86C388.372 161.937 388.474 162.052 388.535 162.19C388.58 162.358 388.561 162.536 388.482 162.691C388.402 162.846 388.269 162.965 388.106 163.027C387.996 163.036 387.885 163.036 387.775 163.027C387.517 163.001 387.27 162.908 387.058 162.758C386.847 162.608 386.678 162.405 386.568 162.17C386.163 161.205 385.989 160.158 386.062 159.114ZM382.343 146.049H377.728V154.051H382.421C383.434 153.98 384.382 153.528 385.075 152.786C385.767 152.043 386.152 151.065 386.152 150.05C386.152 149.035 385.767 148.057 385.075 147.314C384.382 146.572 383.434 146.119 382.421 146.049H382.343Z" fill="#1A237E"/>
<path d="M397.822 154.382L391.591 145.854C391.5 145.714 391.464 145.545 391.489 145.38C391.514 145.215 391.599 145.065 391.728 144.958C391.792 144.902 391.868 144.861 391.949 144.836C392.031 144.811 392.117 144.804 392.202 144.815C392.286 144.826 392.368 144.855 392.44 144.9C392.513 144.945 392.575 145.004 392.623 145.075L398.465 153.058L404.306 145.075C404.355 145.004 404.42 144.944 404.494 144.899C404.568 144.854 404.651 144.825 404.737 144.814C404.824 144.803 404.911 144.81 404.994 144.835C405.078 144.86 405.155 144.902 405.221 144.958C405.357 145.059 405.448 145.21 405.474 145.378C405.499 145.546 405.457 145.717 405.357 145.854L399.146 154.324V162.657C399.146 162.741 399.129 162.825 399.097 162.903C399.065 162.981 399.017 163.052 398.958 163.111C398.898 163.171 398.827 163.218 398.749 163.251C398.671 163.283 398.588 163.299 398.503 163.299C398.419 163.299 398.336 163.283 398.258 163.251C398.18 163.218 398.109 163.171 398.049 163.111C397.989 163.052 397.942 162.981 397.91 162.903C397.878 162.825 397.861 162.741 397.861 162.657L397.822 154.382Z" fill="#1A237E"/>
<path d="M408.454 145.367C408.481 145.214 408.561 145.074 408.68 144.974C408.799 144.873 408.95 144.818 409.106 144.818C409.262 144.818 409.413 144.873 409.533 144.974C409.652 145.074 409.732 145.214 409.759 145.367V158.685C409.775 158.78 409.771 158.878 409.745 158.971C409.72 159.064 409.675 159.151 409.613 159.224C409.551 159.298 409.473 159.358 409.386 159.398C409.298 159.439 409.203 159.46 409.106 159.46C409.01 159.46 408.914 159.439 408.827 159.398C408.739 159.358 408.662 159.298 408.6 159.224C408.538 159.151 408.492 159.064 408.467 158.971C408.442 158.878 408.438 158.78 408.454 158.685V145.367ZM408.454 162.015C408.481 161.861 408.561 161.722 408.68 161.621C408.799 161.521 408.95 161.466 409.106 161.466C409.262 161.466 409.413 161.521 409.533 161.621C409.652 161.722 409.732 161.861 409.759 162.015V162.657C409.732 162.811 409.652 162.95 409.533 163.05C409.413 163.151 409.262 163.206 409.106 163.206C408.95 163.206 408.799 163.151 408.68 163.05C408.561 162.95 408.481 162.811 408.454 162.657V162.015Z" fill="#1A237E"/>
<path d="M423.386 145.367C423.386 145.196 423.453 145.033 423.574 144.912C423.694 144.792 423.858 144.724 424.028 144.724H429.285C430.69 144.724 432.037 145.282 433.03 146.275C434.023 147.268 434.581 148.616 434.581 150.02C434.581 151.425 434.023 152.772 433.03 153.765C432.037 154.758 430.69 155.316 429.285 155.316H424.69V162.618C424.664 162.771 424.584 162.911 424.464 163.011C424.345 163.111 424.194 163.166 424.038 163.166C423.882 163.166 423.731 163.111 423.612 163.011C423.492 162.911 423.412 162.771 423.386 162.618V145.367ZM429.227 154.05C430.289 154.035 431.304 153.605 432.053 152.852C432.803 152.099 433.228 151.083 433.238 150.02C433.233 148.96 432.808 147.945 432.056 147.197C431.305 146.449 430.287 146.029 429.227 146.029H424.632V154.05H429.227Z" fill="#1A237E"/>
<path d="M447.159 158.491H438.69L437.054 162.872C437.008 162.995 436.925 163.102 436.818 163.178C436.71 163.254 436.583 163.297 436.451 163.3H436.198C436.04 163.235 435.913 163.112 435.845 162.956C435.776 162.8 435.77 162.623 435.828 162.463L442.272 145.231C442.333 145.114 442.425 145.015 442.539 144.946C442.652 144.878 442.782 144.841 442.915 144.842C443.049 144.834 443.182 144.867 443.297 144.937C443.411 145.006 443.502 145.109 443.557 145.231L450.002 162.463C450.061 162.621 450.058 162.795 449.993 162.951C449.928 163.107 449.806 163.231 449.652 163.3H449.418C449.286 163.297 449.158 163.254 449.051 163.178C448.943 163.102 448.861 162.995 448.814 162.872L447.159 158.491ZM439.177 157.186H446.673L442.934 147.217L439.177 157.186Z" fill="#1A237E"/>
<path d="M461.957 154.927C461.872 154.933 461.787 154.92 461.707 154.892C461.627 154.863 461.553 154.818 461.491 154.759C461.429 154.701 461.38 154.63 461.346 154.552C461.312 154.474 461.295 154.389 461.295 154.304C461.295 154.129 461.365 153.96 461.489 153.836C461.613 153.712 461.782 153.642 461.957 153.642H467.798C467.958 153.662 468.105 153.74 468.21 153.863C468.314 153.986 468.369 154.143 468.363 154.304V160.768C468.351 160.955 468.267 161.129 468.129 161.255C466.954 162.245 465.556 162.936 464.055 163.268C462.554 163.6 460.995 163.565 459.512 163.163C458.028 162.762 456.663 162.008 455.534 160.964C454.406 159.921 453.546 158.62 453.03 157.173C452.513 155.725 452.354 154.174 452.568 152.652C452.781 151.129 453.359 149.681 454.254 148.431C455.148 147.181 456.332 146.167 457.704 145.474C459.076 144.781 460.596 144.43 462.132 144.452C464.324 144.454 466.45 145.195 468.168 146.555C468.281 146.677 468.343 146.837 468.343 147.003C468.343 147.169 468.281 147.328 468.168 147.451C468.058 147.587 467.899 147.675 467.724 147.696C467.55 147.718 467.375 147.672 467.234 147.567C465.771 146.378 463.939 145.738 462.055 145.757C460.773 145.768 459.513 146.083 458.376 146.675C457.239 147.267 456.259 148.119 455.515 149.163C454.771 150.206 454.285 151.411 454.096 152.679C453.907 153.946 454.021 155.24 454.428 156.455C454.835 157.67 455.524 158.772 456.439 159.67C457.353 160.567 458.467 161.236 459.69 161.621C460.912 162.005 462.208 162.095 463.472 161.882C464.736 161.67 465.932 161.162 466.961 160.399V154.927H461.957Z" fill="#1A237E"/>
<path d="M474.866 145.367C474.866 145.196 474.934 145.033 475.054 144.912C475.175 144.792 475.338 144.724 475.509 144.724H485.069C485.222 144.751 485.362 144.831 485.462 144.95C485.563 145.069 485.618 145.22 485.618 145.376C485.618 145.532 485.563 145.683 485.462 145.803C485.362 145.922 485.222 146.002 485.069 146.029H476.171V153.369H483.959C484.113 153.396 484.252 153.476 484.352 153.595C484.453 153.714 484.508 153.865 484.508 154.021C484.508 154.177 484.453 154.328 484.352 154.448C484.252 154.567 484.113 154.647 483.959 154.674H476.171V161.994H485.069C485.222 162.021 485.362 162.101 485.462 162.221C485.563 162.34 485.618 162.491 485.618 162.647C485.618 162.803 485.563 162.954 485.462 163.073C485.362 163.192 485.222 163.272 485.069 163.299H475.45C475.292 163.28 475.146 163.205 475.038 163.087C474.931 162.969 474.87 162.816 474.866 162.657V145.367Z" fill="#1A237E"/>
<path d="M499.905 147.431V162.637C499.921 162.729 499.917 162.824 499.893 162.915C499.869 163.005 499.825 163.09 499.764 163.161C499.704 163.233 499.629 163.291 499.544 163.331C499.459 163.37 499.366 163.391 499.272 163.391C499.178 163.391 499.086 163.37 499.001 163.331C498.916 163.291 498.84 163.233 498.78 163.161C498.72 163.09 498.676 163.005 498.652 162.915C498.627 162.824 498.623 162.729 498.639 162.637V145.6C498.604 145.526 498.583 145.446 498.578 145.363C498.573 145.281 498.585 145.199 498.612 145.121C498.639 145.043 498.681 144.972 498.736 144.91C498.791 144.849 498.857 144.799 498.932 144.763C499.006 144.727 499.086 144.706 499.168 144.702C499.251 144.697 499.333 144.709 499.411 144.736C499.488 144.763 499.56 144.805 499.621 144.86C499.683 144.915 499.733 144.981 499.769 145.055L511.023 160.632V145.483C511.049 145.33 511.129 145.19 511.249 145.09C511.368 144.99 511.519 144.935 511.675 144.935C511.831 144.935 511.982 144.99 512.101 145.09C512.221 145.19 512.301 145.33 512.327 145.483V162.598C512.322 162.77 512.25 162.934 512.127 163.054C512.003 163.174 511.838 163.241 511.665 163.241C511.566 163.245 511.468 163.224 511.379 163.179C511.291 163.135 511.215 163.069 511.159 162.987C511.159 162.987 511.159 162.987 511.159 162.89L499.905 147.431Z" fill="#1A237E"/>
<path d="M525.821 144.452C527.708 144.355 529.58 144.825 531.196 145.803C532.812 146.78 534.098 148.22 534.887 149.936C535.676 151.652 535.933 153.565 535.624 155.428C535.315 157.291 534.454 159.019 533.153 160.388C531.852 161.757 530.17 162.705 528.325 163.108C526.48 163.511 524.556 163.352 522.802 162.651C521.049 161.95 519.545 160.739 518.487 159.175C517.429 157.61 516.864 155.764 516.865 153.876C516.831 152.668 517.037 151.466 517.469 150.338C517.901 149.21 518.552 148.178 519.385 147.303C520.217 146.427 521.214 145.724 522.319 145.235C523.423 144.746 524.614 144.48 525.821 144.452ZM525.821 161.976C527.443 162.065 529.055 161.666 530.448 160.83C531.84 159.994 532.95 158.76 533.634 157.286C534.318 155.813 534.544 154.168 534.283 152.565C534.022 150.961 533.286 149.473 532.171 148.293C531.055 147.112 529.611 146.293 528.025 145.942C526.439 145.59 524.784 145.723 523.274 146.322C521.765 146.921 520.469 147.959 519.556 149.302C518.642 150.646 518.152 152.232 518.15 153.856C518.119 154.895 518.293 155.929 518.661 156.9C519.03 157.871 519.587 158.76 520.299 159.515C521.011 160.271 521.866 160.879 522.813 161.305C523.761 161.73 524.783 161.965 525.821 161.995V161.976Z" fill="#1A237E"/>
<path d="M543.578 146.029H537.971C537.817 146.002 537.678 145.922 537.577 145.803C537.477 145.683 537.422 145.532 537.422 145.376C537.422 145.22 537.477 145.069 537.577 144.95C537.678 144.831 537.817 144.751 537.971 144.724H550.432C550.586 144.751 550.725 144.831 550.825 144.95C550.926 145.069 550.981 145.22 550.981 145.376C550.981 145.532 550.926 145.683 550.825 145.803C550.725 145.922 550.586 146.002 550.432 146.029H544.844V162.657C544.844 162.741 544.827 162.824 544.795 162.902C544.763 162.98 544.715 163.051 544.656 163.111C544.596 163.17 544.525 163.218 544.447 163.25C544.369 163.282 544.286 163.299 544.201 163.299C544.118 163.299 544.035 163.282 543.958 163.25C543.881 163.217 543.812 163.17 543.754 163.11C543.696 163.05 543.65 162.979 543.62 162.901C543.59 162.823 543.576 162.74 543.578 162.657V146.029Z" fill="#1A237E"/>
<path d="M563.906 145.367C563.906 145.203 563.968 145.045 564.08 144.926C564.193 144.806 564.346 144.734 564.51 144.724H574.128C574.282 144.751 574.421 144.831 574.522 144.95C574.622 145.069 574.677 145.22 574.677 145.376C574.677 145.532 574.622 145.683 574.522 145.803C574.421 145.922 574.282 146.002 574.128 146.029H565.211V153.369H572.999C573.094 153.353 573.192 153.357 573.285 153.382C573.378 153.407 573.465 153.453 573.538 153.515C573.612 153.577 573.672 153.654 573.712 153.742C573.753 153.829 573.774 153.925 573.774 154.021C573.774 154.118 573.753 154.213 573.712 154.301C573.672 154.388 573.612 154.466 573.538 154.528C573.465 154.59 573.378 154.635 573.285 154.66C573.192 154.686 573.094 154.69 572.999 154.674H565.211V162.657C565.184 162.81 565.104 162.949 564.985 163.05C564.865 163.15 564.714 163.205 564.558 163.205C564.403 163.205 564.252 163.15 564.132 163.05C564.013 162.949 563.933 162.81 563.906 162.657V145.367Z" fill="#1A237E"/>
<path d="M587.562 144.452C589.448 144.355 591.32 144.825 592.936 145.803C594.553 146.78 595.838 148.22 596.628 149.936C597.417 151.652 597.674 153.565 597.365 155.428C597.056 157.291 596.195 159.019 594.894 160.388C593.593 161.757 591.911 162.705 590.066 163.108C588.221 163.511 586.297 163.352 584.543 162.651C582.789 161.95 581.286 160.739 580.228 159.175C579.169 157.61 578.604 155.764 578.606 153.876C578.569 152.667 578.773 151.464 579.204 150.335C579.636 149.206 580.287 148.173 581.119 147.297C581.952 146.421 582.95 145.718 584.056 145.23C585.162 144.742 586.354 144.477 587.562 144.452ZM587.562 161.976C589.644 161.873 591.607 160.975 593.045 159.465C594.482 157.955 595.284 155.951 595.284 153.866C595.284 151.781 594.482 149.777 593.045 148.267C591.607 146.758 589.644 145.859 587.562 145.757C585.48 145.859 583.517 146.758 582.08 148.267C580.642 149.777 579.84 151.781 579.84 153.866C579.84 155.951 580.642 157.955 582.08 159.465C583.517 160.975 585.48 161.873 587.562 161.976Z" fill="#1A237E"/>
<path d="M600.802 145.367C600.828 145.214 600.908 145.074 601.028 144.974C601.147 144.873 601.298 144.818 601.454 144.818C601.61 144.818 601.761 144.873 601.88 144.974C602 145.074 602.08 145.214 602.106 145.367V155.784C602.059 156.628 602.184 157.472 602.475 158.265C602.765 159.059 603.214 159.785 603.794 160.399C604.375 161.013 605.075 161.502 605.851 161.836C606.627 162.17 607.463 162.343 608.308 162.343C609.153 162.343 609.989 162.17 610.765 161.836C611.541 161.502 612.24 161.013 612.821 160.399C613.401 159.785 613.85 159.059 614.141 158.265C614.431 157.472 614.556 156.628 614.509 155.784V145.367C614.536 145.214 614.616 145.074 614.735 144.974C614.854 144.873 615.005 144.818 615.161 144.818C615.317 144.818 615.468 144.873 615.587 144.974C615.707 145.074 615.787 145.214 615.814 145.367V155.784C615.865 156.802 615.71 157.82 615.356 158.775C615.002 159.731 614.458 160.605 613.756 161.344C613.053 162.083 612.208 162.671 611.272 163.073C610.335 163.475 609.327 163.682 608.308 163.682C607.288 163.682 606.28 163.475 605.343 163.073C604.407 162.671 603.562 162.083 602.86 161.344C602.158 160.605 601.613 159.731 601.259 158.775C600.906 157.82 600.75 156.802 600.802 155.784V145.367Z" fill="#1A237E"/>
<path d="M623.33 147.431V162.638C623.325 162.807 623.256 162.967 623.137 163.087C623.017 163.206 622.857 163.275 622.688 163.28C622.603 163.28 622.52 163.264 622.442 163.231C622.364 163.199 622.293 163.152 622.233 163.092C622.174 163.033 622.126 162.962 622.094 162.884C622.062 162.806 622.045 162.722 622.045 162.638V145.601C622.006 145.472 622.007 145.333 622.049 145.204C622.091 145.075 622.171 144.962 622.279 144.881C622.426 144.793 622.601 144.762 622.77 144.794C622.938 144.827 623.089 144.92 623.194 145.056L634.429 160.632V145.484C634.455 145.331 634.535 145.191 634.655 145.091C634.774 144.99 634.925 144.935 635.081 144.935C635.237 144.935 635.388 144.99 635.507 145.091C635.626 145.191 635.706 145.331 635.733 145.484V162.599C635.728 162.771 635.656 162.934 635.532 163.054C635.409 163.174 635.243 163.241 635.071 163.241C634.972 163.246 634.874 163.225 634.785 163.18C634.697 163.136 634.621 163.07 634.565 162.988C634.565 162.988 634.565 162.988 634.467 162.891L623.33 147.431Z" fill="#1A237E"/>
<path d="M641.789 163.299H641.672C641.514 163.28 641.367 163.205 641.26 163.087C641.153 162.969 641.091 162.816 641.088 162.657V145.367C641.088 145.196 641.156 145.033 641.276 144.912C641.397 144.792 641.56 144.724 641.73 144.724H645.196C647.659 144.724 650.022 145.703 651.763 147.444C653.505 149.186 654.484 151.548 654.484 154.012C654.484 156.475 653.505 158.837 651.763 160.579C650.022 162.321 647.659 163.299 645.196 163.299H641.789ZM645.196 161.994C646.244 161.994 647.283 161.788 648.251 161.387C649.22 160.986 650.1 160.398 650.841 159.656C651.582 158.915 652.17 158.035 652.571 157.067C652.973 156.098 653.179 155.06 653.179 154.012C653.179 152.963 652.973 151.925 652.571 150.957C652.17 149.988 651.582 149.108 650.841 148.367C650.1 147.626 649.22 147.037 648.251 146.636C647.283 146.235 646.244 146.029 645.196 146.029H642.392V161.994H645.196Z" fill="#1A237E"/>
<path d="M416.671 92.7577C416.671 94.0766 416.408 95.3823 415.898 96.5986C415.388 97.815 414.641 98.9175 413.7 99.8419C412.76 100.766 411.644 101.494 410.419 101.983C409.194 102.471 407.884 102.711 406.565 102.688H404.774V116.317C404.774 118.951 403.728 121.476 401.866 123.339C400.003 125.201 397.478 126.247 394.844 126.247C392.21 126.247 389.685 125.201 387.823 123.339C385.96 121.476 384.914 118.951 384.914 116.317V102.688H328.002C325.754 102.769 323.56 101.989 321.868 100.507C320.82 99.724 319.943 98.7354 319.29 97.6017C318.637 96.4681 318.223 95.2131 318.071 93.9137C317.92 92.6142 318.035 91.2976 318.41 90.0442C318.786 88.7909 319.412 87.6273 320.252 86.6245L387.017 3.62152C387.192 3.62152 387.192 3.42682 387.367 3.25159C387.595 3.0499 387.78 2.80503 387.913 2.53118C388.261 2.44751 388.574 2.25685 388.808 1.986C389.003 1.81076 389.353 1.63553 389.529 1.44082C389.849 1.21733 390.229 1.09522 390.619 1.09035C390.794 0.720413 390.969 0.54518 391.339 0.54518C391.709 0.54518 391.885 0.369945 392.43 0.19471C392.686 0.220079 392.942 0.150806 393.15 0H396.207C396.485 0.157144 396.804 0.225117 397.122 0.19471C397.297 0.369945 397.843 0.369945 398.193 0.54518C398.543 0.720415 398.738 0.720416 398.913 0.720416C399.204 0.978353 399.51 1.21891 399.829 1.44082C400.179 1.63553 400.354 1.81076 400.724 1.986C400.749 1.98584 400.773 1.99094 400.796 2.00093C400.819 2.01093 400.839 2.02561 400.856 2.044C400.872 2.0624 400.885 2.08409 400.892 2.10765C400.9 2.13121 400.902 2.15611 400.899 2.18071C401.075 2.18071 401.445 2.35594 401.445 2.53118L402.165 3.25159C402.34 3.42682 402.535 3.79676 402.71 3.97199C402.982 4.25101 403.223 4.55773 403.431 4.88711C403.477 5.15958 403.606 5.41115 403.801 5.60752C403.946 5.95432 404.064 6.31247 404.151 6.6784C404.151 6.85363 404.326 7.22358 404.326 7.39881C404.495 7.73575 404.563 8.11452 404.521 8.48916C404.521 8.83963 404.696 9.03433 404.696 9.3848V82.8277H406.487C407.809 82.8097 409.12 83.0524 410.347 83.5419C411.574 84.0315 412.693 84.7582 413.639 85.6806C414.585 86.6029 415.339 87.7028 415.859 88.9172C416.38 90.1316 416.655 91.4366 416.671 92.7577ZM384.914 38.2402L348.933 82.8277H384.836L384.914 38.2402Z" fill="#1A237E"/>
<path d="M440.403 63.1625C440.579 46.5541 444.726 31.5812 452.67 20.0352C460.244 8.48916 471.985 0 486.237 0C500.119 0 512.035 8.48916 519.609 20.0352C527.184 31.5812 531.701 46.5541 531.701 63.1625C531.701 79.7708 527.378 94.7437 519.609 106.29C511.841 117.836 500.139 126.325 486.237 126.325C471.985 126.325 460.244 117.661 452.67 106.29C444.726 94.7437 440.579 79.5761 440.403 63.1625ZM511.666 63.1625C511.868 51.853 508.872 40.7165 503.021 31.0361C497.783 23.462 491.825 19.86 486.237 20.0352C480.629 19.86 474.555 23.462 469.083 31.0361C463.226 40.7144 460.222 51.8511 460.419 63.1625C460.217 74.413 463.223 85.4886 469.083 95.0942C474.496 102.882 480.629 106.29 486.237 106.29C491.844 106.29 497.783 102.863 503.021 95.0942C508.258 87.3254 511.666 75.9741 511.666 63.1625Z" fill="#1A237E"/>
<path d="M641.885 92.7577C641.882 94.0775 641.617 95.3837 641.105 96.6001C640.593 97.8165 639.844 98.9189 638.902 99.8431C637.96 100.767 636.843 101.495 635.617 101.983C634.391 102.471 633.079 102.711 631.76 102.688H629.969V116.317C629.969 118.951 628.922 121.476 627.06 123.339C625.198 125.201 622.672 126.247 620.039 126.247C617.405 126.247 614.879 125.201 613.017 123.339C611.155 121.476 610.109 118.951 610.109 116.317V102.688H553.274C551.02 102.774 548.818 101.994 547.121 100.507C546.073 99.724 545.196 98.7354 544.543 97.6017C543.89 96.4681 543.476 95.2131 543.324 93.9137C543.173 92.6142 543.288 91.2976 543.663 90.0442C544.038 88.7909 544.665 87.6273 545.505 86.6245L612.27 3.62152C612.445 3.62152 612.445 3.42682 612.62 3.25159C612.848 3.0499 613.033 2.80503 613.166 2.53118C613.514 2.44751 613.827 2.25685 614.061 1.986C614.256 1.81076 614.606 1.63553 614.782 1.44082C615.102 1.21733 615.482 1.09522 615.872 1.09035C616.047 0.720413 616.222 0.54518 616.592 0.54518C616.962 0.54518 617.137 0.369945 617.683 0.19471C617.939 0.220079 618.195 0.150806 618.403 0H621.46C621.738 0.157144 622.057 0.225117 622.375 0.19471C622.55 0.369945 623.096 0.369945 623.446 0.54518C623.796 0.720415 623.991 0.720416 624.166 0.720416C624.536 1.09036 624.887 1.26559 625.062 1.44082C625.237 1.61606 625.607 1.81076 625.977 1.986C626.002 1.98584 626.026 1.99094 626.049 2.00093C626.072 2.01093 626.092 2.02561 626.108 2.044C626.125 2.0624 626.137 2.08409 626.145 2.10765C626.153 2.13121 626.155 2.15611 626.152 2.18071C626.328 2.18071 626.698 2.35594 626.698 2.53118L627.418 3.25159C627.593 3.42682 627.788 3.79676 627.963 3.97199C628.235 4.25101 628.476 4.55773 628.684 4.88711C628.73 5.15958 628.859 5.41115 629.053 5.60752C629.199 5.95432 629.317 6.31247 629.404 6.6784C629.404 6.85363 629.579 7.22358 629.579 7.39881C629.742 7.73773 629.802 8.11641 629.754 8.48916C629.754 8.83963 629.949 9.03433 629.949 9.3848V82.8277H631.74C634.4 82.8069 636.96 83.8396 638.861 85.7002C640.762 87.5608 641.849 90.0981 641.885 92.7577ZM610.109 38.2402L574.205 82.8277H610.109V38.2402Z" fill="#1A237E"/>
<path d="M487.074 250.06C486.816 250.06 486.568 249.958 486.386 249.775C486.203 249.593 486.101 249.345 486.101 249.087V221.692C486.101 221.434 486.203 221.186 486.386 221.003C486.568 220.821 486.816 220.718 487.074 220.718C487.332 220.718 487.58 220.821 487.762 221.003C487.945 221.186 488.048 221.434 488.048 221.692V249.087C488.048 249.345 487.945 249.593 487.762 249.775C487.58 249.958 487.332 250.06 487.074 250.06Z" fill="#263238"/>
<path d="M437.503 263.183C437.331 263.184 437.161 263.139 437.01 263.054C436.86 262.968 436.735 262.845 436.647 262.697L423.017 238.962C422.937 238.852 422.881 238.726 422.853 238.593C422.824 238.46 422.824 238.322 422.852 238.189C422.88 238.056 422.936 237.93 423.016 237.819C423.095 237.709 423.197 237.616 423.315 237.548C423.433 237.479 423.564 237.436 423.699 237.422C423.835 237.407 423.972 237.421 424.101 237.462C424.231 237.504 424.351 237.572 424.452 237.663C424.554 237.753 424.636 237.864 424.692 237.989L438.321 261.723C438.387 261.833 438.43 261.954 438.448 262.081C438.466 262.207 438.459 262.336 438.426 262.459C438.393 262.583 438.336 262.698 438.258 262.799C438.18 262.9 438.082 262.985 437.971 263.047C437.83 263.134 437.669 263.181 437.503 263.183Z" fill="#263238"/>
<path d="M423.251 458.512C423.079 458.513 422.91 458.466 422.764 458.375C422.655 458.305 422.562 458.213 422.49 458.105C422.417 457.997 422.368 457.876 422.344 457.748C422.32 457.621 422.323 457.49 422.352 457.363C422.38 457.237 422.435 457.117 422.511 457.012L436.14 433.297C436.204 433.186 436.29 433.088 436.391 433.01C436.493 432.932 436.609 432.874 436.733 432.841C436.857 432.807 436.986 432.799 437.113 432.815C437.24 432.832 437.363 432.873 437.474 432.937C437.585 433.001 437.683 433.086 437.761 433.188C437.84 433.289 437.897 433.405 437.93 433.529C437.964 433.653 437.973 433.782 437.956 433.91C437.94 434.037 437.898 434.16 437.834 434.271L424.205 457.986C424.116 458.159 423.978 458.301 423.808 458.395C423.638 458.488 423.444 458.529 423.251 458.512Z" fill="#263238"/>
<path d="M486.452 475.607C486.194 475.607 485.946 475.505 485.764 475.322C485.581 475.14 485.479 474.892 485.479 474.634V447.278C485.479 447.02 485.581 446.772 485.764 446.589C485.946 446.407 486.194 446.304 486.452 446.304C486.709 446.309 486.953 446.413 487.135 446.595C487.316 446.776 487.421 447.021 487.426 447.278V474.673C487.416 474.924 487.309 475.162 487.127 475.336C486.946 475.51 486.704 475.608 486.452 475.607Z" fill="#263238"/>
<path d="M549.732 458.824C549.562 458.823 549.396 458.777 549.249 458.692C549.102 458.606 548.98 458.484 548.895 458.337L535.266 434.622C535.202 434.511 535.16 434.388 535.144 434.261C535.127 434.133 535.136 434.004 535.17 433.88C535.203 433.757 535.261 433.64 535.339 433.539C535.417 433.437 535.515 433.352 535.626 433.288C535.737 433.224 535.86 433.183 535.987 433.166C536.114 433.15 536.243 433.159 536.367 433.192C536.491 433.225 536.607 433.283 536.709 433.361C536.81 433.44 536.896 433.537 536.96 433.648L550.589 457.363C550.655 457.473 550.698 457.594 550.716 457.721C550.734 457.847 550.727 457.976 550.694 458.1C550.661 458.223 550.604 458.339 550.526 458.44C550.448 458.541 550.35 458.625 550.239 458.687C550.087 458.781 549.911 458.829 549.732 458.824Z" fill="#263238"/>
<path d="M536.57 263.495C536.398 263.496 536.229 263.449 536.083 263.358C535.971 263.296 535.874 263.212 535.796 263.111C535.717 263.01 535.66 262.894 535.627 262.771C535.595 262.647 535.587 262.518 535.605 262.392C535.623 262.265 535.666 262.144 535.732 262.034L549.362 238.3C549.503 238.105 549.712 237.97 549.948 237.92C550.184 237.87 550.43 237.91 550.638 238.031C550.847 238.152 551.003 238.346 551.076 238.576C551.15 238.805 551.135 239.054 551.036 239.273L537.407 263.008C537.319 263.153 537.196 263.273 537.05 263.358C536.904 263.443 536.739 263.49 536.57 263.495Z" fill="#263238"/>
</svg>
